<?xml version="1.0" encoding="utf-8"?>
<!-- Generator: Adobe Illustrator 22.1.0, SVG Export Plug-In . SVG Version: 6.00 Build 0)  -->
<svg version="1.1" xmlns="http://www.w3.org/2000/svg" xmlns:xlink="http://www.w3.org/1999/xlink" x="0px" y="0px"
	 viewBox="0 0 200 200" style="enable-background:new 0 0 200 200;" xml:space="preserve">
<style type="text/css">
	.st0{display:none;}
	.st1{display:inline;fill:none;stroke:#000000;stroke-width:2;stroke-linecap:round;stroke-miterlimit:10;}
	.st2{fill:none;stroke:#000000;stroke-width:2;stroke-linecap:round;stroke-miterlimit:10;}
</style>
<g id="Layer_6" class="st0">
	<rect x="25" y="25" class="st1" width="150" height="151"/>
</g>
<g id="Layer_2" class="st0">
	<circle class="st1" cx="100" cy="100" r="75"/>
</g>
<g id="Layer_5" class="st0">
	<polyline class="st1" points="50,4 100,84 150,4 	"/>
	<polyline class="st1" points="150,196 101,117 50,196 	"/>
</g>
<g id="Layer_1" class="st0">
	<path class="st1" d="M100,200"/>
	<path class="st1" d="M85.5,198c25.1-24,24.1-65.3,0-87.2C61.4,89,21.8,93.3,2,122"/>
	<path class="st1" d="M105,1"/>
	<path class="st1" d="M113.5,2c-25.1,24-24.1,65.3,0,87.2C137.6,111,177.2,106.7,197,78"/>
</g>
<g id="Layer_3" class="st0">
	<line class="st1" x1="35" y1="196" x2="190" y2="36"/>
	<line class="st1" x1="6" y1="167" x2="161" y2="7"/>
</g>
<g id="Layer_4">
	<polyline class="st2" points="111,13 111,95 10,95 	"/>
	<polyline class="st2" points="91,187 91,105 187.5,105 	"/>
</g>
</svg>
